# xmcd CD database file
#
# Track frame offsets:
#	150
#	16157
#	43814
#	56906
#	96360
#	110762
#	142942
#	167054
#	200858
#
# Disc length: 2932 seconds
#
# Revision: 0
# Processed by: cddbd v1.5.2PL0 Copyright (c) Steve Scherf et al.
# Submitted via: CDex 1.70beta2
#
DISCID=830b7209
DTITLE=Blanke, Toto - Fools paradise
DYEAR=1989
DGENRE=Jazz
TTITLE0=Dalis Himmerlfahrt
TTITLE1=Locos de la opera
TTITLE2=Palomita
TTITLE3=Mad house
TTITLE4=Aquellas cartas
TTITLE5=el fatha morgana
TTITLE6=early birds
TTITLE7=fools paradise
TTITLE8=hola, Gustavo (dedicated to G. Mahler)
EXTD=YEAR: 1989
EXTT0=
EXTT1=
EXTT2=
EXTT3=
EXTT4=
EXTT5=
EXTT6=
EXTT7=
EXTT8=
PLAYORDER=
